<?xml version="1.0" standalone="no"?>
<!DOCTYPE svg PUBLIC "-//W3C//DTD SVG 20010904//EN"
 "http://www.w3.org/TR/2001/REC-SVG-20010904/DTD/svg10.dtd">
<svg version="1.0" xmlns="http://www.w3.org/2000/svg"
 width="75.000000pt" height="90.000000pt" viewBox="0 0 75.000000 90.000000"
 preserveAspectRatio="xMidYMid meet">
<metadata>
Created by potrace 1.15, written by Peter Selinger 2001-2017
</metadata>
<g transform="translate(0.000000,90.000000) scale(0.100000,-0.100000)"
fill="#000000" stroke="none">
<path d="M104 831 c-42 -25 -48 -38 -27 -50 20 -11 10 -27 -21 -33 -11 -1 -21
-9 -24 -17 -3 -10 0 -12 12 -8 9 4 16 2 16 -4 0 -11 70 -2 85 12 15 15 62 10
69 -6 3 -8 16 -15 30 -15 27 0 42 -15 26 -25 -14 -8 -3 -25 16 -25 25 0 28 30
4 55 -17 18 -20 30 -15 54 4 20 3 31 -4 31 -6 0 -11 -5 -11 -10 0 -12 -73 16
-78 30 -2 6 -15 10 -28 10 -14 0 -22 4 -19 10 9 14 5 13 -31 -9z"/>
<path d="M504 830 c-32 -13 -38 -29 -19 -50 16 -18 16 -20 1 -25 -49 -15 -52
-18 -33 -22 9 -3 17 -10 17 -16 0 -8 4 -7 12 1 7 7 24 12 39 12 15 0 31 5 34
10 11 17 50 11 63 -11 7 -11 18 -18 25 -16 7 2 20 0 30 -5 14 -7 16 -13 7 -23
-8 -9 -6 -14 6 -19 23 -9 24 -8 24 15 0 12 -8 27 -17 34 -11 8 -17 25 -16 50
1 21 -2 33 -6 26 -6 -9 -15 -8 -37 4 -16 8 -35 15 -41 15 -7 0 -13 5 -13 11 0
7 -10 9 -25 7 -13 -3 -22 -1 -19 3 6 11 -4 10 -32 -1z"/>
<path d="M220 545 c-114 -114 -156 -151 -162 -141 -5 8 -14 41 -22 73 -8 32
-15 47 -15 33 -1 -37 52 -182 90 -247 44 -73 156 -193 220 -234 l50 -32 55 38
c82 56 176 164 222 253 37 71 65 144 45 115 -6 -9 -55 34 -163 142 -85 85
-157 155 -160 155 -3 0 -75 -70 -160 -155z m400 -295 c0 -35 -104 -147 -193
-209 l-48 -32 -63 45 c-64 46 -142 126 -167 172 -12 24 -8 30 112 150 l124
124 118 -119 c64 -66 117 -125 117 -131z"/>
<path d="M328 383 c-10 -2 -18 -8 -18 -13 0 -4 -9 -10 -20 -13 -20 -5 -29 -47
-10 -47 22 0 8 -28 -20 -40 -29 -12 -44 -38 -16 -27 8 3 16 1 19 -6 3 -9 10
-9 31 1 15 6 38 12 51 12 14 0 25 5 25 10 0 19 66 11 85 -10 10 -11 23 -20 29
-19 39 5 48 -1 42 -26 -5 -20 -3 -25 14 -25 16 0 20 7 20 30 0 17 -4 30 -9 30
-25 0 -41 33 -35 68 7 34 6 36 -9 23 -12 -9 -21 -10 -29 -3 -7 5 -28 13 -45
17 -18 3 -33 11 -33 17 0 7 -14 8 -36 5 -33 -6 -35 -5 -18 8 19 14 14 17 -18
8z"/>
</g>
</svg>
